<mxfile host="65bd71144e">
    <diagram name="Page-1" id="5d7acffa-a066-3a61-03fe-96351882024d">
        <mxGraphModel dx="2508" dy="981" grid="1" gridSize="10" guides="1" tooltips="1" connect="1" arrows="1" fold="1" page="1" pageScale="1" pageWidth="1100" pageHeight="850" background="#ffffff" math="0" shadow="0">
            <root>
                <mxCell id="0"/>
                <mxCell id="1" parent="0"/>
                <mxCell id="t5zFvqTxYrGrfH3YHS5j-99" value="Reference Design Interfaces" style="rounded=1;arcSize=10;whiteSpace=wrap;html=1;align=center;dashed=1;horizontal=1;verticalAlign=top;fontSize=16;fontFamily=Arial Nova Light;fontStyle=1" parent="1" vertex="1">
                    <mxGeometry x="210" y="450" width="800" height="510" as="geometry"/>
                </mxCell>
                <mxCell id="t5zFvqTxYrGrfH3YHS5j-69" value="ASR Engine Placeholder&amp;nbsp;" style="rounded=1;arcSize=24;whiteSpace=wrap;html=1;align=center;dashed=1;horizontal=1;verticalAlign=top;fontSize=16;fontFamily=Arial Nova Light;fontStyle=1" parent="1" vertex="1">
                    <mxGeometry x="540" y="253" width="260" height="172" as="geometry"/>
                </mxCell>
                <mxCell id="t5zFvqTxYrGrfH3YHS5j-65" value="XCORE-VOICE DSP Blocks" style="rounded=1;arcSize=24;whiteSpace=wrap;html=1;align=center;dashed=1;horizontal=1;verticalAlign=top;fontSize=16;fontFamily=Arial Nova Light;fontStyle=1" parent="1" vertex="1">
                    <mxGeometry x="430" y="60" width="650" height="172" as="geometry"/>
                </mxCell>
                <mxCell id="21ea969265ad0168-6" value="IC + VAD" style="swimlane;html=1;fontStyle=1;childLayout=stackLayout;horizontal=1;startSize=26;fillColor=#B8E720;horizontalStack=0;resizeParent=1;resizeLast=0;collapsible=1;marginBottom=0;swimlaneFillColor=#ffffff;align=center;rounded=1;shadow=0;comic=0;labelBackgroundColor=none;strokeWidth=1;fontFamily=Arial Nova Light;fontSize=12;strokeColor=#99DA07;fontColor=#464749;" parent="1" vertex="1">
                    <mxGeometry x="450" y="100" width="160" height="110" as="geometry"/>
                </mxCell>
                <mxCell id="21ea969265ad0168-7" value="Mic 0" style="text;html=1;strokeColor=none;fillColor=none;spacingLeft=4;spacingRight=4;whiteSpace=wrap;overflow=hidden;rotatable=0;points=[[0,0.5],[1,0.5]];portConstraint=eastwest;fontFamily=Arial Nova Light;fontStyle=1" parent="21ea969265ad0168-6" vertex="1">
                    <mxGeometry y="26" width="160" height="26" as="geometry"/>
                </mxCell>
                <mxCell id="21ea969265ad0168-8" value="Mic 1" style="text;html=1;strokeColor=none;fillColor=none;spacingLeft=4;spacingRight=4;whiteSpace=wrap;overflow=hidden;rotatable=0;points=[[0,0.5],[1,0.5]];portConstraint=eastwest;fontFamily=Arial Nova Light;fontStyle=1" parent="21ea969265ad0168-6" vertex="1">
                    <mxGeometry y="52" width="160" height="26" as="geometry"/>
                </mxCell>
                <mxCell id="21ea969265ad0168-9" value="ASR output" style="text;html=1;strokeColor=none;fillColor=none;spacingLeft=4;spacingRight=4;whiteSpace=wrap;overflow=hidden;rotatable=0;points=[[0,0.5],[1,0.5]];portConstraint=eastwest;fontFamily=Arial Nova Light;fontStyle=1" parent="21ea969265ad0168-6" vertex="1">
                    <mxGeometry y="78" width="160" height="26" as="geometry"/>
                </mxCell>
                <mxCell id="21ea969265ad0168-10" value="Mic Array Driver" style="swimlane;html=1;fontStyle=1;childLayout=stackLayout;horizontal=1;startSize=26;fillColor=#B8E720;horizontalStack=0;resizeParent=1;resizeLast=0;collapsible=1;marginBottom=0;swimlaneFillColor=#ffffff;align=center;rounded=1;shadow=0;comic=0;labelBackgroundColor=none;strokeWidth=1;fontFamily=Arial Nova Light;fontSize=12;strokeColor=#99DA07;fontColor=#464749;" parent="1" vertex="1">
                    <mxGeometry x="250" y="100" width="160" height="86" as="geometry"/>
                </mxCell>
                <mxCell id="21ea969265ad0168-11" value="Mic 0" style="text;html=1;strokeColor=none;fillColor=none;spacingLeft=4;spacingRight=4;whiteSpace=wrap;overflow=hidden;rotatable=0;points=[[0,0.5],[1,0.5]];portConstraint=eastwest;fontFamily=Arial Nova Light;fontStyle=1" parent="21ea969265ad0168-10" vertex="1">
                    <mxGeometry y="26" width="160" height="26" as="geometry"/>
                </mxCell>
                <mxCell id="t5zFvqTxYrGrfH3YHS5j-6" value="Mic 1" style="text;html=1;strokeColor=none;fillColor=none;spacingLeft=4;spacingRight=4;whiteSpace=wrap;overflow=hidden;rotatable=0;points=[[0,0.5],[1,0.5]];portConstraint=eastwest;fontFamily=Arial Nova Light;fontStyle=1" parent="21ea969265ad0168-10" vertex="1">
                    <mxGeometry y="52" width="160" height="26" as="geometry"/>
                </mxCell>
                <mxCell id="t5zFvqTxYrGrfH3YHS5j-15" value="" style="edgeStyle=orthogonalEdgeStyle;rounded=0;orthogonalLoop=1;jettySize=auto;html=1;fontFamily=Arial Nova Light;fontStyle=1" parent="1" source="t5zFvqTxYrGrfH3YHS5j-8" edge="1">
                    <mxGeometry relative="1" as="geometry">
                        <mxPoint x="250" y="115" as="targetPoint"/>
                    </mxGeometry>
                </mxCell>
                <mxCell id="t5zFvqTxYrGrfH3YHS5j-8" value="PDM Mics" style="html=1;rounded=0;shadow=0;comic=0;labelBackgroundColor=none;strokeWidth=2;fontFamily=Arial Nova Light;fontSize=12;align=center;shape=mxgraph.ios7ui.horLines;fontStyle=1" parent="1" vertex="1">
                    <mxGeometry x="60" y="90" width="135" height="50" as="geometry"/>
                </mxCell>
                <mxCell id="t5zFvqTxYrGrfH3YHS5j-16" value="NS" style="swimlane;html=1;fontStyle=1;childLayout=stackLayout;horizontal=1;startSize=26;fillColor=#B8E720;horizontalStack=0;resizeParent=1;resizeLast=0;collapsible=1;marginBottom=0;swimlaneFillColor=#ffffff;align=center;rounded=1;shadow=0;comic=0;labelBackgroundColor=none;strokeWidth=1;fontFamily=Arial Nova Light;fontSize=12;strokeColor=#99DA07;fontColor=#464749;" parent="1" vertex="1">
                    <mxGeometry x="660" y="100" width="160" height="80" as="geometry"/>
                </mxCell>
                <mxCell id="t5zFvqTxYrGrfH3YHS5j-17" value="Input" style="text;html=1;strokeColor=none;fillColor=none;spacingLeft=4;spacingRight=4;whiteSpace=wrap;overflow=hidden;rotatable=0;points=[[0,0.5],[1,0.5]];portConstraint=eastwest;fontFamily=Arial Nova Light;fontStyle=1" parent="t5zFvqTxYrGrfH3YHS5j-16" vertex="1">
                    <mxGeometry y="26" width="160" height="26" as="geometry"/>
                </mxCell>
                <mxCell id="t5zFvqTxYrGrfH3YHS5j-18" value="Output" style="text;html=1;strokeColor=none;fillColor=none;spacingLeft=4;spacingRight=4;whiteSpace=wrap;overflow=hidden;rotatable=0;points=[[0,0.5],[1,0.5]];portConstraint=eastwest;fontFamily=Arial Nova Light;fontStyle=1" parent="t5zFvqTxYrGrfH3YHS5j-16" vertex="1">
                    <mxGeometry y="52" width="160" height="26" as="geometry"/>
                </mxCell>
                <mxCell id="t5zFvqTxYrGrfH3YHS5j-20" value="AGC" style="swimlane;html=1;fontStyle=1;childLayout=stackLayout;horizontal=1;startSize=26;fillColor=#B8E720;horizontalStack=0;resizeParent=1;resizeLast=0;collapsible=1;marginBottom=0;swimlaneFillColor=#ffffff;align=center;rounded=1;shadow=0;comic=0;labelBackgroundColor=none;strokeWidth=1;fontFamily=Arial Nova Light;fontSize=12;strokeColor=#99DA07;fontColor=#464749;" parent="1" vertex="1">
                    <mxGeometry x="870" y="100" width="160" height="80" as="geometry"/>
                </mxCell>
                <mxCell id="t5zFvqTxYrGrfH3YHS5j-21" value="Input" style="text;html=1;strokeColor=none;fillColor=none;spacingLeft=4;spacingRight=4;whiteSpace=wrap;overflow=hidden;rotatable=0;points=[[0,0.5],[1,0.5]];portConstraint=eastwest;fontFamily=Arial Nova Light;fontStyle=1" parent="t5zFvqTxYrGrfH3YHS5j-20" vertex="1">
                    <mxGeometry y="26" width="160" height="26" as="geometry"/>
                </mxCell>
                <mxCell id="t5zFvqTxYrGrfH3YHS5j-22" value="Output" style="text;html=1;strokeColor=none;fillColor=none;spacingLeft=4;spacingRight=4;whiteSpace=wrap;overflow=hidden;rotatable=0;points=[[0,0.5],[1,0.5]];portConstraint=eastwest;fontFamily=Arial Nova Light;fontStyle=1" parent="t5zFvqTxYrGrfH3YHS5j-20" vertex="1">
                    <mxGeometry y="52" width="160" height="26" as="geometry"/>
                </mxCell>
                <mxCell id="t5zFvqTxYrGrfH3YHS5j-23" value="ASR Engine" style="swimlane;html=1;fontStyle=1;childLayout=stackLayout;horizontal=1;startSize=26;fillColor=#44BBF1;horizontalStack=0;resizeParent=1;resizeLast=0;collapsible=1;marginBottom=0;swimlaneFillColor=#ffffff;align=center;rounded=1;shadow=0;comic=0;labelBackgroundColor=none;strokeWidth=1;fontFamily=Arial Nova Light;fontSize=12;strokeColor=#1399DB;fontColor=#464749;" parent="1" vertex="1">
                    <mxGeometry x="590" y="299" width="160" height="110" as="geometry"/>
                </mxCell>
                <mxCell id="t5zFvqTxYrGrfH3YHS5j-24" value="Input Audio" style="text;html=1;strokeColor=none;fillColor=none;spacingLeft=4;spacingRight=4;whiteSpace=wrap;overflow=hidden;rotatable=0;points=[[0,0.5],[1,0.5]];portConstraint=eastwest;fontFamily=Arial Nova Light;fontStyle=1" parent="t5zFvqTxYrGrfH3YHS5j-23" vertex="1">
                    <mxGeometry y="26" width="160" height="26" as="geometry"/>
                </mxCell>
                <mxCell id="t5zFvqTxYrGrfH3YHS5j-25" value="Model" style="text;html=1;strokeColor=none;fillColor=none;spacingLeft=4;spacingRight=4;whiteSpace=wrap;overflow=hidden;rotatable=0;points=[[0,0.5],[1,0.5]];portConstraint=eastwest;fontFamily=Arial Nova Light;fontStyle=1" parent="t5zFvqTxYrGrfH3YHS5j-23" vertex="1">
                    <mxGeometry y="52" width="160" height="26" as="geometry"/>
                </mxCell>
                <mxCell id="t5zFvqTxYrGrfH3YHS5j-71" value="Intent" style="text;html=1;strokeColor=none;fillColor=none;spacingLeft=4;spacingRight=4;whiteSpace=wrap;overflow=hidden;rotatable=0;points=[[0,0.5],[1,0.5]];portConstraint=eastwest;fontFamily=Arial Nova Light;fontStyle=1" parent="t5zFvqTxYrGrfH3YHS5j-23" vertex="1">
                    <mxGeometry y="78" width="160" height="26" as="geometry"/>
                </mxCell>
                <mxCell id="t5zFvqTxYrGrfH3YHS5j-26" value="" style="edgeStyle=orthogonalEdgeStyle;rounded=0;orthogonalLoop=1;jettySize=auto;html=1;fontFamily=Arial Nova Light;fontStyle=1" parent="1" source="21ea969265ad0168-11" target="21ea969265ad0168-7" edge="1">
                    <mxGeometry relative="1" as="geometry"/>
                </mxCell>
                <mxCell id="t5zFvqTxYrGrfH3YHS5j-27" value="" style="edgeStyle=orthogonalEdgeStyle;rounded=0;orthogonalLoop=1;jettySize=auto;html=1;entryX=0;entryY=0.5;entryDx=0;entryDy=0;fontFamily=Arial Nova Light;fontStyle=1" parent="1" source="t5zFvqTxYrGrfH3YHS5j-6" target="21ea969265ad0168-8" edge="1">
                    <mxGeometry relative="1" as="geometry"/>
                </mxCell>
                <mxCell id="t5zFvqTxYrGrfH3YHS5j-28" value="" style="edgeStyle=orthogonalEdgeStyle;rounded=0;orthogonalLoop=1;jettySize=auto;html=1;entryX=0;entryY=0.5;entryDx=0;entryDy=0;fontFamily=Arial Nova Light;fontStyle=1" parent="1" source="21ea969265ad0168-9" target="t5zFvqTxYrGrfH3YHS5j-17" edge="1">
                    <mxGeometry relative="1" as="geometry"/>
                </mxCell>
                <mxCell id="t5zFvqTxYrGrfH3YHS5j-29" value="" style="edgeStyle=orthogonalEdgeStyle;rounded=0;orthogonalLoop=1;jettySize=auto;html=1;entryX=0;entryY=0.5;entryDx=0;entryDy=0;fontFamily=Arial Nova Light;fontStyle=1" parent="1" source="t5zFvqTxYrGrfH3YHS5j-18" target="t5zFvqTxYrGrfH3YHS5j-21" edge="1">
                    <mxGeometry relative="1" as="geometry"/>
                </mxCell>
                <mxCell id="t5zFvqTxYrGrfH3YHS5j-33" value="" style="edgeStyle=orthogonalEdgeStyle;rounded=0;orthogonalLoop=1;jettySize=auto;html=1;entryX=1;entryY=0.5;entryDx=0;entryDy=0;exitX=1;exitY=0.5;exitDx=0;exitDy=0;fontFamily=Arial Nova Light;fontStyle=1" parent="1" source="t5zFvqTxYrGrfH3YHS5j-22" target="t5zFvqTxYrGrfH3YHS5j-24" edge="1">
                    <mxGeometry relative="1" as="geometry">
                        <mxPoint x="990" y="226" as="sourcePoint"/>
                        <mxPoint x="1040" y="200" as="targetPoint"/>
                    </mxGeometry>
                </mxCell>
                <mxCell id="t5zFvqTxYrGrfH3YHS5j-39" value="" style="edgeStyle=orthogonalEdgeStyle;rounded=0;orthogonalLoop=1;jettySize=auto;html=1;fontFamily=Arial Nova Light;fontStyle=1" parent="1" source="t5zFvqTxYrGrfH3YHS5j-35" target="t5zFvqTxYrGrfH3YHS5j-38" edge="1">
                    <mxGeometry relative="1" as="geometry"/>
                </mxCell>
                <mxCell id="t5zFvqTxYrGrfH3YHS5j-35" value="Heartbeat" style="swimlane;html=1;fontStyle=1;childLayout=stackLayout;horizontal=1;startSize=26;fillColor=#44BBF1;horizontalStack=0;resizeParent=1;resizeLast=0;collapsible=1;marginBottom=0;swimlaneFillColor=#ffffff;align=center;rounded=1;shadow=0;comic=0;labelBackgroundColor=none;strokeWidth=1;fontFamily=Arial Nova Light;fontSize=12;strokeColor=#1399DB;fontColor=#464749;" parent="1" vertex="1">
                    <mxGeometry x="250" y="215" width="160" height="60" as="geometry"/>
                </mxCell>
                <mxCell id="t5zFvqTxYrGrfH3YHS5j-38" value="Green LED" style="html=1;rounded=0;shadow=0;comic=0;labelBackgroundColor=none;strokeWidth=2;fontFamily=Arial Nova Light;fontSize=12;align=center;shape=mxgraph.ios7ui.horLines;fontStyle=1" parent="1" vertex="1">
                    <mxGeometry x="60" y="220" width="135" height="50" as="geometry"/>
                </mxCell>
                <mxCell id="t5zFvqTxYrGrfH3YHS5j-41" value="UART Peripheral" style="swimlane;html=1;fontStyle=1;childLayout=stackLayout;horizontal=1;startSize=26;fillColor=#44BBF1;horizontalStack=0;resizeParent=1;resizeLast=0;collapsible=1;marginBottom=0;swimlaneFillColor=#ffffff;align=center;rounded=1;shadow=0;comic=0;labelBackgroundColor=none;strokeWidth=1;fontFamily=Arial Nova Light;fontSize=12;strokeColor=#1399DB;fontColor=#464749;" parent="1" vertex="1">
                    <mxGeometry x="250" y="880" width="160" height="60" as="geometry"/>
                </mxCell>
                <mxCell id="t5zFvqTxYrGrfH3YHS5j-57" value="Intent" style="text;html=1;strokeColor=none;fillColor=none;spacingLeft=4;spacingRight=4;whiteSpace=wrap;overflow=hidden;rotatable=0;points=[[0,0.5],[1,0.5]];portConstraint=eastwest;fontFamily=Arial Nova Light;fontStyle=1" parent="t5zFvqTxYrGrfH3YHS5j-41" vertex="1">
                    <mxGeometry y="26" width="160" height="26" as="geometry"/>
                </mxCell>
                <mxCell id="t5zFvqTxYrGrfH3YHS5j-96" style="edgeStyle=orthogonalEdgeStyle;rounded=0;orthogonalLoop=1;jettySize=auto;html=1;entryX=1;entryY=0.5;entryDx=0;entryDy=0;fontSize=16;dashed=1;fontFamily=Arial Nova Light;fontStyle=1" parent="1" source="t5zFvqTxYrGrfH3YHS5j-43" target="t5zFvqTxYrGrfH3YHS5j-25" edge="1">
                    <mxGeometry relative="1" as="geometry"/>
                </mxCell>
                <mxCell id="t5zFvqTxYrGrfH3YHS5j-43" value="QSPI Flash Peripheral" style="swimlane;html=1;fontStyle=1;childLayout=stackLayout;horizontal=1;startSize=26;fillColor=#44BBF1;horizontalStack=0;resizeParent=1;resizeLast=0;collapsible=1;marginBottom=0;swimlaneFillColor=#ffffff;align=center;rounded=1;shadow=0;comic=0;labelBackgroundColor=none;strokeWidth=1;fontFamily=Arial Nova Light;fontSize=12;strokeColor=#1399DB;fontColor=#464749;" parent="1" vertex="1">
                    <mxGeometry x="820" y="679" width="160" height="60" as="geometry"/>
                </mxCell>
                <mxCell id="t5zFvqTxYrGrfH3YHS5j-44" value="DAC" style="html=1;rounded=0;shadow=0;comic=0;labelBackgroundColor=none;strokeWidth=2;fontFamily=Arial Nova Light;fontSize=12;align=center;shape=mxgraph.ios7ui.horLines;fontStyle=1" parent="1" vertex="1">
                    <mxGeometry x="60" y="660" width="135" height="50" as="geometry"/>
                </mxCell>
                <mxCell id="t5zFvqTxYrGrfH3YHS5j-46" value="Keyword Peripheral &lt;br&gt;IO Message" style="html=1;rounded=0;shadow=0;comic=0;labelBackgroundColor=none;strokeWidth=2;fontFamily=Arial Nova Light;fontSize=12;align=center;shape=mxgraph.ios7ui.horLines;fontStyle=1" parent="1" vertex="1">
                    <mxGeometry x="60" y="850" width="135" height="50" as="geometry"/>
                </mxCell>
                <mxCell id="t5zFvqTxYrGrfH3YHS5j-48" value="I2C Peripheral" style="swimlane;html=1;fontStyle=1;childLayout=stackLayout;horizontal=1;startSize=26;fillColor=#44BBF1;horizontalStack=0;resizeParent=1;resizeLast=0;collapsible=1;marginBottom=0;swimlaneFillColor=#ffffff;align=center;rounded=1;shadow=0;comic=0;labelBackgroundColor=none;strokeWidth=1;fontFamily=Arial Nova Light;fontSize=12;strokeColor=#1399DB;fontColor=#464749;" parent="1" vertex="1">
                    <mxGeometry x="250" y="730" width="160" height="110" as="geometry"/>
                </mxCell>
                <mxCell id="t5zFvqTxYrGrfH3YHS5j-49" value="DAC Init" style="text;html=1;strokeColor=none;fillColor=none;spacingLeft=4;spacingRight=4;whiteSpace=wrap;overflow=hidden;rotatable=0;points=[[0,0.5],[1,0.5]];portConstraint=eastwest;fontFamily=Arial Nova Light;fontStyle=1" parent="t5zFvqTxYrGrfH3YHS5j-48" vertex="1">
                    <mxGeometry y="26" width="160" height="26" as="geometry"/>
                </mxCell>
                <mxCell id="t5zFvqTxYrGrfH3YHS5j-50" value="IO Expander Init" style="text;html=1;strokeColor=none;fillColor=none;spacingLeft=4;spacingRight=4;whiteSpace=wrap;overflow=hidden;rotatable=0;points=[[0,0.5],[1,0.5]];portConstraint=eastwest;fontFamily=Arial Nova Light;fontStyle=1" parent="t5zFvqTxYrGrfH3YHS5j-48" vertex="1">
                    <mxGeometry y="52" width="160" height="26" as="geometry"/>
                </mxCell>
                <mxCell id="t5zFvqTxYrGrfH3YHS5j-56" value="Intent" style="text;html=1;strokeColor=none;fillColor=none;spacingLeft=4;spacingRight=4;whiteSpace=wrap;overflow=hidden;rotatable=0;points=[[0,0.5],[1,0.5]];portConstraint=eastwest;fontFamily=Arial Nova Light;fontStyle=1" parent="t5zFvqTxYrGrfH3YHS5j-48" vertex="1">
                    <mxGeometry y="78" width="160" height="26" as="geometry"/>
                </mxCell>
                <mxCell id="t5zFvqTxYrGrfH3YHS5j-58" value="Intent Handler" style="swimlane;html=1;fontStyle=1;childLayout=stackLayout;horizontal=1;startSize=26;fillColor=#44BBF1;horizontalStack=0;resizeParent=1;resizeLast=0;collapsible=1;marginBottom=0;swimlaneFillColor=#ffffff;align=center;rounded=1;shadow=0;comic=0;labelBackgroundColor=none;strokeWidth=1;fontFamily=Arial Nova Light;fontSize=12;strokeColor=#1399DB;fontColor=#464749;" parent="1" vertex="1">
                    <mxGeometry x="560" y="530" width="160" height="80" as="geometry"/>
                </mxCell>
                <mxCell id="t5zFvqTxYrGrfH3YHS5j-59" value="Input intent" style="text;html=1;strokeColor=none;fillColor=none;spacingLeft=4;spacingRight=4;whiteSpace=wrap;overflow=hidden;rotatable=0;points=[[0,0.5],[1,0.5]];portConstraint=eastwest;fontFamily=Arial Nova Light;fontStyle=1" parent="t5zFvqTxYrGrfH3YHS5j-58" vertex="1">
                    <mxGeometry y="26" width="160" height="26" as="geometry"/>
                </mxCell>
                <mxCell id="t5zFvqTxYrGrfH3YHS5j-60" value="Wakeword" style="text;html=1;strokeColor=none;fillColor=none;spacingLeft=4;spacingRight=4;whiteSpace=wrap;overflow=hidden;rotatable=0;points=[[0,0.5],[1,0.5]];portConstraint=eastwest;fontFamily=Arial Nova Light;fontStyle=1" parent="t5zFvqTxYrGrfH3YHS5j-58" vertex="1">
                    <mxGeometry y="52" width="160" height="26" as="geometry"/>
                </mxCell>
                <mxCell id="t5zFvqTxYrGrfH3YHS5j-63" style="edgeStyle=orthogonalEdgeStyle;rounded=0;orthogonalLoop=1;jettySize=auto;html=1;entryX=0;entryY=0.5;entryDx=0;entryDy=0;exitX=0;exitY=0.5;exitDx=0;exitDy=0;fontFamily=Arial Nova Light;fontStyle=1" parent="1" source="t5zFvqTxYrGrfH3YHS5j-71" target="t5zFvqTxYrGrfH3YHS5j-59" edge="1">
                    <mxGeometry relative="1" as="geometry">
                        <mxPoint x="640" y="450" as="targetPoint"/>
                        <Array as="points">
                            <mxPoint x="490" y="390"/>
                            <mxPoint x="490" y="569"/>
                        </Array>
                    </mxGeometry>
                </mxCell>
                <mxCell id="t5zFvqTxYrGrfH3YHS5j-75" value="IO Expander" style="html=1;rounded=0;shadow=0;comic=0;labelBackgroundColor=none;strokeWidth=2;fontFamily=Arial Nova Light;fontSize=12;align=center;shape=mxgraph.ios7ui.horLines;fontStyle=1" parent="1" vertex="1">
                    <mxGeometry x="60" y="770" width="135" height="50" as="geometry"/>
                </mxCell>
                <mxCell id="t5zFvqTxYrGrfH3YHS5j-77" style="edgeStyle=orthogonalEdgeStyle;rounded=0;orthogonalLoop=1;jettySize=auto;html=1;fontSize=16;fontFamily=Arial Nova Light;fontStyle=1" parent="1" source="t5zFvqTxYrGrfH3YHS5j-56" target="t5zFvqTxYrGrfH3YHS5j-46" edge="1">
                    <mxGeometry relative="1" as="geometry">
                        <Array as="points">
                            <mxPoint x="230" y="820"/>
                            <mxPoint x="230" y="875"/>
                        </Array>
                    </mxGeometry>
                </mxCell>
                <mxCell id="t5zFvqTxYrGrfH3YHS5j-79" style="edgeStyle=orthogonalEdgeStyle;rounded=0;orthogonalLoop=1;jettySize=auto;html=1;fontSize=16;startArrow=none;fontFamily=Arial Nova Light;fontStyle=1" parent="1" source="13" target="13" edge="1">
                    <mxGeometry relative="1" as="geometry">
                        <mxPoint x="200" y="889" as="targetPoint"/>
                        <Array as="points"/>
                    </mxGeometry>
                </mxCell>
                <mxCell id="t5zFvqTxYrGrfH3YHS5j-80" style="edgeStyle=orthogonalEdgeStyle;rounded=0;orthogonalLoop=1;jettySize=auto;html=1;fontSize=16;fontFamily=Arial Nova Light;fontStyle=1" parent="1" source="t5zFvqTxYrGrfH3YHS5j-50" target="t5zFvqTxYrGrfH3YHS5j-75" edge="1">
                    <mxGeometry relative="1" as="geometry"/>
                </mxCell>
                <mxCell id="t5zFvqTxYrGrfH3YHS5j-81" style="edgeStyle=orthogonalEdgeStyle;rounded=0;orthogonalLoop=1;jettySize=auto;html=1;entryX=1;entryY=0.784;entryDx=0;entryDy=0;entryPerimeter=0;fontSize=16;dashed=1;fontFamily=Arial Nova Light;fontStyle=1" parent="1" source="t5zFvqTxYrGrfH3YHS5j-49" target="t5zFvqTxYrGrfH3YHS5j-44" edge="1">
                    <mxGeometry relative="1" as="geometry"/>
                </mxCell>
                <mxCell id="t5zFvqTxYrGrfH3YHS5j-82" value="GPIO Wakeup Output" style="html=1;rounded=0;shadow=0;comic=0;labelBackgroundColor=none;strokeWidth=2;fontFamily=Arial Nova Light;fontSize=12;align=center;shape=mxgraph.ios7ui.horLines;fontStyle=1" parent="1" vertex="1">
                    <mxGeometry x="60" y="540" width="135" height="50" as="geometry"/>
                </mxCell>
                <mxCell id="t5zFvqTxYrGrfH3YHS5j-93" style="edgeStyle=orthogonalEdgeStyle;rounded=0;orthogonalLoop=1;jettySize=auto;html=1;entryX=0.5;entryY=0;entryDx=0;entryDy=0;fontSize=16;fontFamily=Arial Nova Light;fontStyle=1" parent="1" source="t5zFvqTxYrGrfH3YHS5j-83" target="t5zFvqTxYrGrfH3YHS5j-58" edge="1">
                    <mxGeometry relative="1" as="geometry"/>
                </mxCell>
                <mxCell id="t5zFvqTxYrGrfH3YHS5j-83" value="GPIO Host Status Input" style="html=1;rounded=0;shadow=0;comic=0;labelBackgroundColor=none;strokeWidth=2;fontFamily=Arial Nova Light;fontSize=12;align=center;shape=mxgraph.ios7ui.horLines;fontStyle=1" parent="1" vertex="1">
                    <mxGeometry x="60" y="460" width="135" height="50" as="geometry"/>
                </mxCell>
                <mxCell id="t5zFvqTxYrGrfH3YHS5j-91" style="edgeStyle=orthogonalEdgeStyle;rounded=0;orthogonalLoop=1;jettySize=auto;html=1;entryX=1;entryY=0.123;entryDx=0;entryDy=0;entryPerimeter=0;fontSize=16;startArrow=none;exitX=0.673;exitY=0.053;exitDx=0;exitDy=0;exitPerimeter=0;fontFamily=Arial Nova Light;fontStyle=1" parent="1" source="4" target="t5zFvqTxYrGrfH3YHS5j-48" edge="1">
                    <mxGeometry relative="1" as="geometry"/>
                </mxCell>
                <mxCell id="t5zFvqTxYrGrfH3YHS5j-92" style="edgeStyle=orthogonalEdgeStyle;rounded=0;orthogonalLoop=1;jettySize=auto;html=1;fontSize=16;startArrow=none;fontFamily=Arial Nova Light;fontStyle=1" parent="1" source="9" target="t5zFvqTxYrGrfH3YHS5j-82" edge="1">
                    <mxGeometry relative="1" as="geometry">
                        <mxPoint x="510" y="590" as="sourcePoint"/>
                    </mxGeometry>
                </mxCell>
                <mxCell id="nTEOnzBcEbbtP1dxCWQs-1" value="&lt;font style=&quot;font-size: 20px;&quot;&gt;Tile 1&lt;/font&gt;" style="rounded=1;whiteSpace=wrap;html=1;fillColor=#B8E720;strokeColor=#99DA07;fontColor=#464749;fontFamily=Arial Nova Light;fontStyle=1" parent="1" vertex="1">
                    <mxGeometry x="190" y="10" width="120" height="60" as="geometry"/>
                </mxCell>
                <mxCell id="nTEOnzBcEbbtP1dxCWQs-2" value="&lt;font style=&quot;font-size: 20px;&quot;&gt;Tile 0&lt;br&gt;&lt;/font&gt;" style="rounded=1;whiteSpace=wrap;html=1;fillColor=#44BBF1;strokeColor=#1399DB;fontColor=#464749;fontFamily=Arial Nova Light;fontStyle=1" parent="1" vertex="1">
                    <mxGeometry x="60" y="10" width="120" height="60" as="geometry"/>
                </mxCell>
                <mxCell id="5tkIII6Xo1PpN1unlZkE-1" style="edgeStyle=orthogonalEdgeStyle;rounded=0;orthogonalLoop=1;jettySize=auto;html=1;entryX=1;entryY=0.25;entryDx=0;entryDy=0;startArrow=none;exitDx=0;exitDy=0;exitPerimeter=0;fontFamily=Arial Nova Light;fontStyle=1" parent="1" source="4" edge="1">
                    <mxGeometry relative="1" as="geometry">
                        <mxPoint x="480" y="744" as="sourcePoint"/>
                        <mxPoint x="410" y="893" as="targetPoint"/>
                        <Array as="points">
                            <mxPoint x="480" y="893"/>
                        </Array>
                    </mxGeometry>
                </mxCell>
                <mxCell id="6" value="" style="edgeStyle=orthogonalEdgeStyle;rounded=0;orthogonalLoop=1;jettySize=auto;html=1;entryDx=0;entryDy=0;entryPerimeter=0;fontSize=16;endArrow=none;startArrow=none;fontFamily=Arial Nova Light;fontStyle=1" parent="1" source="9" target="4" edge="1">
                    <mxGeometry relative="1" as="geometry">
                        <mxPoint x="560" y="595" as="sourcePoint"/>
                        <mxPoint x="410" y="743.5300000000001" as="targetPoint"/>
                        <Array as="points">
                            <mxPoint x="480" y="670"/>
                            <mxPoint x="480" y="670"/>
                        </Array>
                    </mxGeometry>
                </mxCell>
                <mxCell id="7" value="" style="edgeStyle=orthogonalEdgeStyle;rounded=0;orthogonalLoop=1;jettySize=auto;html=1;entryDx=0;entryDy=0;startArrow=none;exitX=0.523;exitY=0.307;exitDx=0;exitDy=0;exitPerimeter=0;endArrow=none;fontFamily=Arial Nova Light;fontStyle=1" parent="1" target="4" edge="1">
                    <mxGeometry relative="1" as="geometry">
                        <mxPoint x="480" y="744" as="sourcePoint"/>
                        <mxPoint x="410" y="893" as="targetPoint"/>
                        <Array as="points"/>
                    </mxGeometry>
                </mxCell>
                <mxCell id="4" value="" style="shape=waypoint;sketch=0;fillStyle=solid;size=6;pointerEvents=1;points=[];fillColor=none;resizable=0;rotatable=0;perimeter=centerPerimeter;snapToPoint=1;strokeColor=#464749;fontFamily=Arial Nova Light;fontColor=#464749;fontStyle=1" parent="1" vertex="1">
                    <mxGeometry x="470" y="733" width="20" height="20" as="geometry"/>
                </mxCell>
                <mxCell id="8" value="" style="edgeStyle=orthogonalEdgeStyle;rounded=0;orthogonalLoop=1;jettySize=auto;html=1;entryDx=0;entryDy=0;entryPerimeter=0;fontSize=16;endArrow=none;fontFamily=Arial Nova Light;fontStyle=1;exitX=0;exitY=0.5;exitDx=0;exitDy=0;" parent="1" source="t5zFvqTxYrGrfH3YHS5j-60" target="9" edge="1">
                    <mxGeometry relative="1" as="geometry">
                        <mxPoint x="560" y="594.9655172413793" as="sourcePoint"/>
                        <mxPoint x="480" y="730" as="targetPoint"/>
                    </mxGeometry>
                </mxCell>
                <mxCell id="11" value="" style="edgeStyle=orthogonalEdgeStyle;rounded=0;orthogonalLoop=1;jettySize=auto;html=1;fontSize=16;endArrow=none;exitX=0.579;exitY=0.96;exitDx=0;exitDy=0;exitPerimeter=0;fontFamily=Arial Nova Light;fontStyle=1" parent="1" source="9" target="9" edge="1">
                    <mxGeometry relative="1" as="geometry">
                        <mxPoint x="480" y="580" as="sourcePoint"/>
                        <mxPoint x="195" y="564.9655172413793" as="targetPoint"/>
                    </mxGeometry>
                </mxCell>
                <mxCell id="9" value="" style="shape=waypoint;sketch=0;fillStyle=solid;size=6;pointerEvents=1;points=[];fillColor=none;resizable=0;rotatable=0;perimeter=centerPerimeter;snapToPoint=1;strokeColor=#464749;fontFamily=Arial Nova Light;fontColor=#464749;fontStyle=1" parent="1" vertex="1">
                    <mxGeometry x="470" y="585" width="20" height="20" as="geometry"/>
                </mxCell>
                <mxCell id="12" value="" style="edgeStyle=orthogonalEdgeStyle;rounded=0;orthogonalLoop=1;jettySize=auto;html=1;fontSize=16;endArrow=none;fontFamily=Arial Nova Light;fontStyle=1" parent="1" source="t5zFvqTxYrGrfH3YHS5j-57" target="13" edge="1">
                    <mxGeometry relative="1" as="geometry">
                        <mxPoint x="195" y="875" as="targetPoint"/>
                        <Array as="points">
                            <mxPoint x="230" y="920"/>
                            <mxPoint x="230" y="875"/>
                        </Array>
                        <mxPoint x="250" y="920" as="sourcePoint"/>
                    </mxGeometry>
                </mxCell>
                <mxCell id="13" value="" style="shape=waypoint;sketch=0;fillStyle=solid;size=6;pointerEvents=1;points=[];fillColor=none;resizable=0;rotatable=0;perimeter=centerPerimeter;snapToPoint=1;strokeColor=#464749;fontFamily=Arial Nova Light;fontColor=#464749;fontStyle=1" parent="1" vertex="1">
                    <mxGeometry x="220" y="865" width="20" height="20" as="geometry"/>
                </mxCell>
            </root>
        </mxGraphModel>
    </diagram>
</mxfile>